<?xml version="1.0" encoding="UTF-8" standalone="no"?>
<svg
   xmlns:dc="http://purl.org/dc/elements/1.1/"
   xmlns:cc="http://creativecommons.org/ns#"
   xmlns:rdf="http://www.w3.org/1999/02/22-rdf-syntax-ns#"
   xmlns:svg="http://www.w3.org/2000/svg"
   xmlns="http://www.w3.org/2000/svg"
   xmlns:sodipodi="http://sodipodi.sourceforge.net/DTD/sodipodi-0.dtd"
   xmlns:inkscape="http://www.inkscape.org/namespaces/inkscape"
   viewBox="0 0 68.014396 49.396202"
   version="1.1"
   x="0px"
   y="0px"
   id="svg247"
   sodipodi:docname="noun_dashboard_685849.svg"
   width="68.014397"
   height="49.396202"
   inkscape:version="1.0.2 (e86c8708, 2021-01-15)">
  <metadata
     id="metadata253">
    <rdf:RDF>
      <cc:Work
         rdf:about="">
        <dc:format>image/svg+xml</dc:format>
        <dc:type
           rdf:resource="http://purl.org/dc/dcmitype/StillImage" />
        <dc:title>Artboard 1 Copy 48</dc:title>
      </cc:Work>
    </rdf:RDF>
  </metadata>
  <defs
     id="defs251">
    <rect
       x="101.06647"
       y="71.428574"
       width="130.20833"
       height="78.621033"
       id="rect289" />
    <rect
       x="110.61508"
       y="80.109123"
       width="129.7123"
       height="89.409721"
       id="rect283" />
  </defs>
  <sodipodi:namedview
     pagecolor="#ffffff"
     bordercolor="#666666"
     borderopacity="1"
     objecttolerance="10"
     gridtolerance="10"
     guidetolerance="10"
     inkscape:pageopacity="0"
     inkscape:pageshadow="2"
     inkscape:window-width="2560"
     inkscape:window-height="1395"
     id="namedview249"
     showgrid="false"
     fit-margin-top="0"
     fit-margin-left="0"
     fit-margin-right="0"
     fit-margin-bottom="0"
     inkscape:zoom="8.064"
     inkscape:cx="16.088052"
     inkscape:cy="25.009672"
     inkscape:window-x="0"
     inkscape:window-y="23"
     inkscape:window-maximized="0"
     inkscape:current-layer="svg247"
     inkscape:document-rotation="0" />
  <title
     id="title221">Artboard 1 Copy 48</title>
  <desc
     id="desc223">Created with Sketch.</desc>
  <g
     stroke="none"
     stroke-width="1"
     fill="none"
     fill-rule="evenodd"
     id="g241"
     transform="matrix(0.583335,0,0,0.583335,4.8404493,-14.583375)">
    <g
       fill="#000000"
       id="g239">
      <path
         d="m 50,25 c -22.056,0 -40,18.445 -40,41.117 0,1.105 0.896,2 2,2 1.104,0 2,-0.895 2,-2 C 14,45.65 30.149,29 50,29 c 19.851,0 36,16.65 36,37.117 0,1.105 0.896,2 2,2 1.104,0 2,-0.895 2,-2 C 90,43.445 72.056,25 50,25"
         id="path225" />
      <path
         d="m 54.2427,69.2432 c -1.133,1.133 -2.64,1.757 -4.243,1.757 -1.602,0 -3.109,-0.624 -4.242,-1.757 -2.34,-2.34 -2.34,-6.146 0,-8.486 2.103,-2.103 11.054,-6.393 17.701,-9.216 -2.821,6.645 -7.11,15.596 -9.216,17.702 m 12.137,-22.813 c -0.725,0 -1.616,0.212 -2.647,0.662 0,0 -16.899,6.931 -20.804,10.837 -3.905,3.905 -3.905,10.237 0,14.142 1.953,1.952 4.512,2.929 7.071,2.929 2.56,0 5.119,-0.977 7.072,-2.929 3.905,-3.905 10.837,-20.804 10.837,-20.804 1.301,-3.019 0.592,-4.837 -1.529,-4.837"
         id="path227" />
      <path
         d="M 20.002,64 H 17.998 C 16.898,64 16,64.896 16,66 c 0,1.112 0.895,2 1.998,2 h 2.004 C 21.102,68 22,67.104 22,66 22,64.888 21.106,64 20.002,64"
         id="path229" />
      <path
         d="M 82.002,64 H 79.998 C 78.898,64 78,64.896 78,66 c 0,1.112 0.895,2 1.998,2 h 2.004 C 83.102,68 84,67.104 84,66 84,64.888 83.106,64 82.002,64"
         id="path231" />
      <path
         d="M 52,36.002 V 33.998 C 52,32.898 51.104,32 50,32 c -1.112,0 -2,0.895 -2,1.998 v 2.004 c 0,1.1 0.896,1.998 2,1.998 1.112,0 2,-0.894 2,-1.998"
         id="path233" />
      <path
         d="m 28.7852,41.957 c -0.777,-0.777 -2.046,-0.779 -2.827,0.002 -0.786,0.786 -0.781,2.046 -0.001,2.826 l 1.417,1.418 c 0.777,0.777 2.046,0.779 2.827,-0.002 0.786,-0.787 0.781,-2.047 0.001,-2.827 z"
         id="path235" />
      <path
         d="m 71.2148,41.957 -1.417,1.417 c -0.778,0.777 -0.78,2.046 0.001,2.827 0.787,0.786 2.047,0.781 2.827,0.002 l 1.417,-1.418 c 0.777,-0.777 0.779,-2.046 -0.001,-2.826 -0.787,-0.787 -2.047,-0.782 -2.827,-0.002"
         id="path237" />
    </g>
  </g>
  <text
     x="-0.91999769"
     y="49.222866"
     fill="#000000"
     font-size="5px"
     font-weight="bold"
     font-family="'Helvetica Neue', Helvetica, Arial-Unicode, Arial, Sans-serif"
     id="text141"
     style="font-size:13.3333px">Dashboard</text>
  <text
     xml:space="preserve"
     id="text281"
     style="font-style:normal;font-weight:normal;font-size:40px;line-height:1.25;font-family:sans-serif;white-space:pre;shape-inside:url(#rect283);fill:#000000;fill-opacity:1;stroke:none;"
     transform="translate(-7.6238843,-16.416667)" />
  <text
     xml:space="preserve"
     id="text287"
     style="font-style:normal;font-weight:normal;font-size:40px;line-height:1.25;font-family:sans-serif;white-space:pre;shape-inside:url(#rect289);fill:#000000;fill-opacity:1;stroke:none;"
     transform="translate(-7.6238843,-16.416667)" />
</svg>
