<?xml version="1.0" encoding="UTF-8" standalone="no"?>
<svg
   xmlns:dc="http://purl.org/dc/elements/1.1/"
   xmlns:cc="http://creativecommons.org/ns#"
   xmlns:rdf="http://www.w3.org/1999/02/22-rdf-syntax-ns#"
   xmlns:svg="http://www.w3.org/2000/svg"
   xmlns="http://www.w3.org/2000/svg"
   xmlns:sodipodi="http://sodipodi.sourceforge.net/DTD/sodipodi-0.dtd"
   xmlns:inkscape="http://www.inkscape.org/namespaces/inkscape"
   viewBox="0 0 42.521374 39.455521"
   x="0px"
   y="0px"
   version="1.1"
   id="svg393"
   sodipodi:docname="noun_History_3325074.svg"
   width="42.521374"
   height="39.455521"
   inkscape:version="1.0.2 (e86c8708, 2021-01-15)">
  <metadata
     id="metadata399">
    <rdf:RDF>
      <cc:Work
         rdf:about="">
        <dc:format>image/svg+xml</dc:format>
        <dc:type
           rdf:resource="http://purl.org/dc/dcmitype/StillImage" />
      </cc:Work>
    </rdf:RDF>
  </metadata>
  <defs
     id="defs397" />
  <sodipodi:namedview
     pagecolor="#ffffff"
     bordercolor="#666666"
     borderopacity="1"
     objecttolerance="10"
     gridtolerance="10"
     guidetolerance="10"
     inkscape:pageopacity="0"
     inkscape:pageshadow="2"
     inkscape:window-width="2560"
     inkscape:window-height="1395"
     id="namedview395"
     showgrid="false"
     inkscape:zoom="12.6"
     inkscape:cx="9.7924115"
     inkscape:cy="19.849137"
     inkscape:window-x="0"
     inkscape:window-y="23"
     inkscape:window-maximized="0"
     inkscape:current-layer="svg393" />
  <title
     id="title383">history, recent</title>
  <g
     id="g387"
     transform="matrix(0.57805283,0,0,0.57805283,2.8423491,-4.0463698)">
    <path
       d="M 57,32 A 25,25 0 1 1 13.7,15 H 9.34 v 0 a 1,1 0 0 1 0,-2 l 6.87,-0.09 v 0 h 0.16 0.18 v 0 l 0.12,0.08 0.15,0.1 0.05,0.06 v 0 a 0.56,0.56 0 0 1 0,0.08 1.1,1.1 0 0 1 0.09,0.14 0.79,0.79 0 0 1 0,0.09 0.57,0.57 0 0 1 0,0.15 0.29,0.29 0 0 1 0,0.1 l 0.67,6.83 a 1,1 0 0 1 -0.9,1.09 h -0.1 a 1,1 0 0 1 -1,-0.9 L 15.16,15.96 A 23,23 0 1 0 32,9 1,1 0 0 1 32,7 25,25 0 0 1 57,32 Z m -25.93,0.34 a 0.91,0.91 0 0 0 0.09,0.17 0.76,0.76 0 0 0 0.11,0.16 0.7,0.7 0 0 0 0.16,0.13 0.87,0.87 0 0 0 0.11,0.09 l 10.07,5.21 a 1,1 0 0 0 0.46,0.12 1,1 0 0 0 0.46,-1.89 L 33,31.39 v -14 a 1,1 0 0 0 -2,0 V 32 a 0.7,0.7 0 0 0 0,0.14 0.65,0.65 0 0 0 0.07,0.2 z"
       id="path385" />
  </g>
  <text
     x="-0.25333345"
     y="39.348854"
     fill="black"
     font-size="5px"
     font-weight="bold"
     font-family="'Helvetica Neue', Helvetica, Arial-Unicode, Arial, Sans-serif"
     id="text141"
     style="font-size:6.66667px">Geschiedenis</text>
</svg>
