<?xml version="1.0" encoding="UTF-8" standalone="no"?>
<svg
   xmlns:dc="http://purl.org/dc/elements/1.1/"
   xmlns:cc="http://creativecommons.org/ns#"
   xmlns:rdf="http://www.w3.org/1999/02/22-rdf-syntax-ns#"
   xmlns:svg="http://www.w3.org/2000/svg"
   xmlns="http://www.w3.org/2000/svg"
   xmlns:sodipodi="http://sodipodi.sourceforge.net/DTD/sodipodi-0.dtd"
   xmlns:inkscape="http://www.inkscape.org/namespaces/inkscape"
   viewBox="0 0 50.714439 55.67981"
   x="0px"
   y="0px"
   version="1.1"
   id="svg143"
   sodipodi:docname="noun_Calendar_3813551.svg"
   width="50.714439"
   height="55.67981"
   inkscape:version="1.0.2 (e86c8708, 2021-01-15)">
  <metadata
     id="metadata149">
    <rdf:RDF>
      <cc:Work
         rdf:about="">
        <dc:format>image/svg+xml</dc:format>
        <dc:type
           rdf:resource="http://purl.org/dc/dcmitype/StillImage" />
        <dc:title>Calendar</dc:title>
      </cc:Work>
    </rdf:RDF>
  </metadata>
  <defs
     id="defs147" />
  <sodipodi:namedview
     pagecolor="#ffffff"
     bordercolor="#666666"
     borderopacity="1"
     objecttolerance="10"
     gridtolerance="10"
     guidetolerance="10"
     inkscape:pageopacity="0"
     inkscape:pageshadow="2"
     inkscape:window-width="2560"
     inkscape:window-height="1395"
     id="namedview145"
     showgrid="false"
     fit-margin-top="0"
     fit-margin-left="0"
     fit-margin-right="0"
     fit-margin-bottom="0"
     inkscape:zoom="12.6"
     inkscape:cx="13.888965"
     inkscape:cy="20.333334"
     inkscape:window-x="0"
     inkscape:window-y="23"
     inkscape:window-maximized="0"
     inkscape:current-layer="svg143"
     inkscape:document-rotation="0" />
  <title
     id="title121">Calendar</title>
  <g
     id="g137"
     transform="matrix(0.59259259,0,0,0.59259259,6.3942558,-1.1851852)">
    <path
       d="M 59,7 H 52 V 4 A 2.0023,2.0023 0 0 0 50,2 H 46 A 2.0023,2.0023 0 0 0 44,4 V 7 H 20 V 4 A 2.002,2.002 0 0 0 18,2 H 14 A 2.002,2.002 0 0 0 12,4 V 7 H 5 a 4.0045,4.0045 0 0 0 -4,4 v 47 a 4.0045,4.0045 0 0 0 4,4 h 54 a 4.0042,4.0042 0 0 0 4,-4 V 11 A 4.0042,4.0042 0 0 0 59,7 Z M 46,8 V 4 l 4,0.0029 V 12 H 46 Z M 14,8 V 4 l 4,0.0029 V 12 h -4 z m 47,50 a 2.0023,2.0023 0 0 1 -2,2 H 5 A 2.002,2.002 0 0 1 3,58 V 22 H 61 Z M 61,20 H 3 V 11 A 2.002,2.002 0 0 1 5,9 h 7 v 3 a 2.002,2.002 0 0 0 2,2 h 4 a 2.002,2.002 0 0 0 2,-2 V 9 h 24 v 3 a 2.0023,2.0023 0 0 0 2,2 h 4 a 2.0023,2.0023 0 0 0 2,-2 V 9 h 7 a 2.0023,2.0023 0 0 1 2,2 z"
       id="path123" />
    <path
       d="m 10,39 h 8 a 2.002,2.002 0 0 0 2,-2 v -8 a 2.002,2.002 0 0 0 -2,-2 h -8 a 2.002,2.002 0 0 0 -2,2 v 8 a 2.002,2.002 0 0 0 2,2 z m 0,-10 h 8 l 0.0015,8 H 10 Z"
       id="path125" />
    <path
       d="m 28,39 h 8 a 2.0023,2.0023 0 0 0 2,-2 v -8 a 2.0023,2.0023 0 0 0 -2,-2 h -8 a 2.002,2.002 0 0 0 -2,2 v 8 a 2.002,2.002 0 0 0 2,2 z m 0,-10 h 8 l 10e-4,8 H 28 Z"
       id="path127" />
    <path
       d="m 46,39 h 8 a 2.0023,2.0023 0 0 0 2,-2 v -8 a 2.0023,2.0023 0 0 0 -2,-2 h -8 a 2.0023,2.0023 0 0 0 -2,2 v 8 a 2.0023,2.0023 0 0 0 2,2 z m 0,-10 h 8 l 10e-4,8 H 46 Z"
       id="path129" />
    <path
       d="m 10,55 h 8 a 2.002,2.002 0 0 0 2,-2 v -8 a 2.002,2.002 0 0 0 -2,-2 h -8 a 2.002,2.002 0 0 0 -2,2 v 8 a 2.002,2.002 0 0 0 2,2 z m 0,-10 h 8 l 0.0015,8 H 10 Z"
       id="path131" />
    <path
       d="m 28,55 h 8 a 2.0023,2.0023 0 0 0 2,-2 v -8 a 2.0023,2.0023 0 0 0 -2,-2 h -8 a 2.002,2.002 0 0 0 -2,2 v 8 a 2.002,2.002 0 0 0 2,2 z m 0,-10 h 8 l 10e-4,8 H 28 Z"
       id="path133" />
    <path
       d="m 46,55 h 8 a 2.0023,2.0023 0 0 0 2,-2 v -8 a 2.0023,2.0023 0 0 0 -2,-2 h -8 a 2.0023,2.0023 0 0 0 -2,2 v 8 a 2.0023,2.0023 0 0 0 2,2 z m 0,-10 h 8 l 10e-4,8 H 46 Z"
       id="path135" />
  </g>
  <text
     x="-0.82800001"
     y="55.523811"
     fill="#000000"
     font-size="5px"
     font-weight="bold"
     font-family="'Helvetica Neue', Helvetica, Arial-Unicode, Arial, Sans-serif"
     id="text141"
     style="font-size:12px">Kalender</text>
</svg>
